# xmcd
#
# Track frame offsets:
#      150
#      14835
#      28858
#      42297
#      55795
#      69304
#      84410
#      99640
#      114121
#      129958
#      161051
#      175501
#      189443
#      201318
#      216262
#      229133
# 
# Disc length: 3191 seconds
#
# Revision: 5
# Processed by: cddbd v1.4PL0 Copyright (c) Steve Scherf et al.
#
# Submitted via: FreeRIP 1.21
#
DISCID=d50c7510
DTITLE=Louis Armstrong - Priceless Jazz
DYEAR=1900
DGENRE=Jazz
TTITLE0=I'm in the Mood for Love
TTITLE1=Solitude (Take B)
TTITLE2=Ain't Misbehavin'
TTITLE3=You Won't Be Satisfied (Until You Break My Heart)
TTITLE4=Rhythm Save the World
TTITLE5=You Can't Lose A Broken Heart
TTITLE6=Dream a Little Dream
TTITLE7=You Rascal You
TTITLE8=La Vie En Rose
TTITLE9=On the Sunny Side of the Street
TTITLE10=Perdido Street Blues
TTITLE11=Struttin' Withe Some Barbecue
TTITLE12=Gone Fishin'
TTITLE13=When It's Sleepy Time Down South
TTITLE14=Dippermouth Blues
TTITLE15=What a Wonderful World
EXTD=
EXTT0=
EXTT1=
EXTT2=
EXTT3=
EXTT4=
EXTT5=
EXTT6=
EXTT7=
EXTT8=
EXTT9=
EXTT10=
EXTT11=
EXTT12=
EXTT13=
EXTT14=
EXTT15=
PLAYORDER=
